<?xml version="1.0" encoding="UTF-8" standalone="no"?>
<!-- Created with Inkscape (http://www.inkscape.org/) -->

<svg
   width="297mm"
   height="210mm"
   viewBox="0 0 1122.5197 793.70081"
   version="1.1"
   id="svg1"
   inkscape:version="1.3 (0e150ed6c4, 2023-07-21)"
   xml:space="preserve"
   sodipodi:docname="croco.svg"
   xmlns:inkscape="http://www.inkscape.org/namespaces/inkscape"
   xmlns:sodipodi="http://sodipodi.sourceforge.net/DTD/sodipodi-0.dtd"
   xmlns="http://www.w3.org/2000/svg"
   xmlns:svg="http://www.w3.org/2000/svg"><sodipodi:namedview
     id="namedview1"
     pagecolor="#7e7e7e"
     bordercolor="#000000"
     borderopacity="0.25"
     inkscape:showpageshadow="2"
     inkscape:pageopacity="0.0"
     inkscape:pagecheckerboard="0"
     inkscape:deskcolor="#595959"
     inkscape:document-units="mm"
     inkscape:zoom="0.5"
     inkscape:cx="-24"
     inkscape:cy="542"
     inkscape:window-width="2451"
     inkscape:window-height="1040"
     inkscape:window-x="-6"
     inkscape:window-y="0"
     inkscape:window-maximized="0"
     inkscape:current-layer="svg1"
     inkscape:lockguides="true"><sodipodi:guide
       position="0,755.90553"
       orientation="-1,0"
       id="guide1"
       inkscape:locked="true"
       inkscape:label=""
       inkscape:color="rgb(0,134,229)" /><sodipodi:guide
       position="0,755.90553"
       orientation="0,1"
       id="guide2"
       inkscape:locked="true"
       inkscape:label=""
       inkscape:color="rgb(0,134,229)" /><sodipodi:guide
       position="1122.5197,793.7008"
       orientation="-1,0"
       id="guide3"
       inkscape:locked="true"
       inkscape:label=""
       inkscape:color="rgb(0,134,229)" /><sodipodi:guide
       position="0,0"
       orientation="0,1"
       id="guide4"
       inkscape:locked="true"
       inkscape:label=""
       inkscape:color="rgb(0,134,229)" /><sodipodi:guide
       position="0,793.70081"
       orientation="-1,0"
       id="guide5"
       inkscape:label=""
       inkscape:locked="true"
       inkscape:color="rgb(0,134,229)" /><sodipodi:guide
       position="1084.7244,793.70081"
       orientation="-1,0"
       id="guide6"
       inkscape:label=""
       inkscape:locked="true"
       inkscape:color="rgb(0,134,229)" /><sodipodi:guide
       position="0,37.795276"
       orientation="0,1"
       id="guide7"
       inkscape:label=""
       inkscape:locked="true"
       inkscape:color="rgb(0,134,229)" /><sodipodi:guide
       position="0,793.70081"
       orientation="0,1"
       id="guide8"
       inkscape:locked="true"
       inkscape:label=""
       inkscape:color="rgb(0,134,229)" /><sodipodi:guide
       position="37.795276,503.84188"
       orientation="-1,0"
       id="guide9"
       inkscape:label=""
       inkscape:locked="true"
       inkscape:color="rgb(0,134,229)" /><sodipodi:guide
       position="47.791739,578.69353"
       orientation="0,52.35999"
       inkscape:locked="true"
       id="guide10" /><sodipodi:guide
       position="509.358,2.8659461"
       orientation="21.879849,0"
       inkscape:locked="true"
       id="guide11" /></sodipodi:namedview><defs
     id="defs1" /><path
     style="fill:#000000;stroke:none;stroke-width:1.51181;stroke-linecap:round;stroke-linejoin:round;stroke-dasharray:none;paint-order:fill markers stroke"
     d="m 0,793.70082 c 0,0.89898 0.5469672,27.16126 42.789945,19.117 0,0 17.740799,12.2248 23.847861,10.23124 6.107062,-1.99354 8.400095,-4.35456 12.232682,-2.7178 3.832569,1.63673 108.352852,30.15595 119.132492,29.36368 10.77967,-0.79224 36.50192,-7.09261 36.50192,-7.09261 0,0 5.13897,4.15676 9.27271,11.92531 4.13375,7.76853 24.31764,42.38647 22.22688,44.10975 -2.09074,1.72326 -15.68714,-9.48391 -21.58575,-7.705 -5.89859,1.77891 -29.27839,5.60166 -29.27839,5.60166 l -21.83576,-6.35624 10.75675,9.80649 -13.19743,4.20927 13.19743,6.71485 -13.19743,6.93622 14.27787,4.0503 -8.4664,9.20856 c 14.21115,-10.64101 27.20314,-14.96464 45.14189,-7.99118 14.67741,5.70566 41.6735,13.77948 56.41831,-5.26768 14.74482,-19.04716 -13.47166,-53.12453 -10.21053,-61.6359 3.26115,-8.51135 24.02988,-6.27566 32.32042,-3.64607 3.85412,1.22245 49.18347,14.33002 88.26723,8.15451 44.98871,-7.10855 84.23027,-33.73816 84.23027,-33.73816 0,0 20.26529,-3.25836 21.4003,2.01488 1.135,5.27325 -32.05635,7.23929 -44.22548,28.78794 -12.16918,21.54863 -0.41353,29.62899 6.83472,33.33178 2.13768,1.09203 17.40565,0.50357 27.57138,2.34536 3.61778,0.65546 -6.42606,5.06898 -4.92248,6.52532 1.31326,1.272 5.63209,0.75122 6.26604,1.77116 0.60586,0.97474 -2.42281,3.47662 -3.29819,5.23187 -1.13143,2.2687 6,0.20891 7.48015,1.82191 1.69974,1.85228 -2.0118,7.233 0,7.51232 2.747,0.3814 11.21121,-11.80116 13.00981,-12.12799 10.12955,-1.84073 18.20993,-13.59638 12.20005,-19.43317 -6.00985,-5.83678 -26.84042,-12.30345 -25.20986,-16.55912 1.63059,-4.25568 29.63971,-13.34017 33.74085,-22.28699 4.10116,-8.9468 5.30245,-13.61938 5.30245,-13.61938 0,0 145.80092,-3.31992 257.59433,-24.59479 28.41446,-5.40742 62.67553,-3.4421 85.08625,-4.56687 56.32029,-2.82667 168.30741,-5.34861 168.30741,-9.43244 0,-4.08383 -112.0283,-4.68499 -168.29645,-7.32686 -29.36881,-1.37891 -59.97196,-1.46442 -85.09721,-6.05297 -111.95675,-20.44634 -257.59433,-25.21427 -257.59433,-25.21427 0,0 -1.20129,-4.67258 -5.30245,-13.61938 -4.10114,-8.94682 -32.11026,-18.03131 -33.74085,-22.28699 -1.63056,-4.25567 19.20001,-10.72233 25.20986,-16.55912 6.00988,-5.83679 -2.0705,-17.59244 -12.20005,-19.43317 -1.7986,-0.32683 -10.26281,-12.50939 -13.00981,-12.12799 -2.0118,0.27932 1.69974,5.66004 0,7.51232 -1.48015,1.613 -8.61158,-0.44679 -7.48015,1.82191 0.87538,1.75525 3.90405,4.25713 3.29819,5.23187 -0.63395,1.01994 -4.95278,0.49916 -6.26604,1.77116 -1.50358,1.45634 8.54026,5.86986 4.92248,6.52532 -10.16573,1.84181 -25.4337,1.25333 -27.57138,2.34537 -7.24825,3.70278 -19.0039,11.78314 -6.83472,33.33177 12.16913,21.54867 45.36048,23.51471 44.22548,28.78796 -1.13501,5.27322 -21.4003,2.01488 -21.4003,2.01488 0,0 -39.24156,-26.62963 -84.23027,-33.73818 -39.08376,-6.17551 -84.41311,6.93208 -88.26723,8.15451 -8.29054,2.62959 -29.05927,4.8653 -32.32042,-3.64605 -3.26113,-8.51137 24.95535,-42.58874 10.21053,-61.63592 -14.74481,-19.04716 -41.7409,-10.97334 -56.41831,-5.26768 -17.93875,6.97346 -30.93074,2.64983 -45.14189,-7.99118 l 8.4664,9.20856 -14.27787,4.0503 13.19743,6.93622 -13.19743,6.71485 13.19743,4.20927 -10.75675,9.80649 21.83576,-6.35622 c 0,0 23.3798,3.82273 29.27839,5.60164 5.89861,1.77891 19.49501,-9.42826 21.58575,-7.70499 2.09076,1.72327 -18.09313,36.34121 -22.22688,44.10976 -4.13374,7.76853 -9.27271,11.92531 -9.27271,11.92531 0,0 -25.72225,-6.30037 -36.50192,-7.09261 -10.77964,-0.79229 -115.299923,27.72695 -119.132492,29.36368 -3.832587,1.63675 -6.12562,-0.72426 -12.232682,-2.7178 C 60.530744,762.359 42.789945,774.5838 42.789945,774.5838 0.5469672,766.53955 0,792.80184 0,793.70082 Z"
     id="path1"
     inkscape:transform-center-x="-275.80941"
     inkscape:transform-center-y="70.108611"
     sodipodi:nodetypes="ccssssssssssssscsssssccccccccssscssscsszsscssscsssccccccccssssscssssssssssssscc" /></svg>
